<svg width="1497" height="336" viewBox="0 0 1497 336" fill="#FFF" xmlns="http://www.w3.org/2000/svg">
  <path fill-rule="evenodd" clip-rule="evenodd" d="M225.935 19.8125C225.737 17.5371 223.733 15.8525 221.457 16.0499C219.182 16.2473 217.497 18.2519 217.695 20.5273L240.966 288.77C241.062 289.177 241.098 289.593 241.074 290.019L241.083 290.118C241.078 290.117 241.073 290.117 241.068 290.116C240.525 297.044 224.146 306.425 193.599 315.293C161.842 324.512 142.848 323.964 139.474 318.449C139.472 318.45 139.471 318.451 139.469 318.452L139.415 318.349C139.366 318.262 139.32 318.174 139.278 318.085L13.7457 77.0308C12.6907 75.005 10.1934 74.218 8.16762 75.273C6.14188 76.3279 5.35489 78.8253 6.40982 80.851L133.741 325.361C133.944 325.749 134.199 326.092 134.494 326.385C137.634 331.512 164.992 331.904 195.58 322.844C223.625 314.538 245.422 304.966 249.235 297.074C249.528 296.57 249.716 296.001 249.774 295.398C249.844 294.939 249.846 294.487 249.777 294.043C249.769 293.988 249.759 293.935 249.747 293.881C249.732 293.813 249.714 293.746 249.694 293.68L225.935 19.8125Z" fill="#FFF"/>
  <path fill-rule="evenodd" clip-rule="evenodd" d="M47.2106 121.762C47.1277 122.41 47.543 123.199 48.3735 124.775L146.484 311.034C146.937 311.894 147.163 312.324 147.503 312.595C147.688 312.742 147.897 312.856 148.119 312.932C153.36 316.659 172.146 315.242 193.376 309.171C214.964 302.998 232.208 292.874 234.148 286.743C234.225 286.612 234.288 286.473 234.335 286.328C234.469 285.916 234.421 285.434 234.326 284.471L234.326 284.471L218.045 120.344V120.344C217.939 119.276 217.886 118.742 217.643 118.34C217.429 117.987 217.114 117.706 216.738 117.534C216.312 117.338 215.775 117.346 214.701 117.363L51.2487 119.926C49.467 119.953 48.5761 119.967 48.0473 120.351C47.5857 120.686 47.2829 121.197 47.2106 121.762Z" fill="#FE9332"/>
  <path d="M218.191 119.421C218.072 131.012 180.052 139.878 132.072 139.387C84.0919 138.895 46.5526 131.116 46.6715 119.524C46.7903 107.933 84.5222 96.9184 132.502 97.4103C180.482 97.9023 218.309 107.829 218.191 119.421Z" fill="#FF7D0C"/>
  <path d="M223.492 22.23C223.492 22.2308 223.493 22.2327 223.494 22.2364C223.494 22.2414 223.495 22.2496 223.496 22.2628C223.496 22.2872 223.496 22.344 223.478 22.4403C223.441 22.6399 223.332 23.0051 223.029 23.5486C222.401 24.6785 221.154 26.1949 219.03 28.0458C214.797 31.7362 207.991 35.9792 198.842 40.4978C180.625 49.4951 154.171 59.0784 123.343 67.3386C92.5436 75.5913 64.1167 80.4699 43.1081 81.7359C32.5604 82.3715 24.1589 82.0778 18.3483 80.9703C15.4304 80.4142 13.461 79.7059 12.2595 79.0132C11.4863 78.5674 11.2269 78.2493 11.1542 78.1347C11.1599 77.9991 11.2255 77.5939 11.6722 76.8213C12.3663 75.6205 13.7178 74.0225 15.9666 72.0819C20.445 68.2175 27.5741 63.7623 37.0265 59.039C55.8535 49.6311 82.9112 39.6426 113.711 31.3898C144.486 23.1436 172.278 18.6791 192.647 17.8163C202.873 17.3831 210.951 17.8715 216.514 19.1085C219.304 19.7287 221.185 20.4785 222.336 21.1946C222.893 21.5409 223.195 21.8272 223.346 22.0076C223.42 22.0949 223.456 22.1548 223.473 22.1855C223.488 22.2148 223.492 22.228 223.492 22.23ZM11.1296 78.0879C11.1302 78.0878 11.1339 78.0946 11.1389 78.1089C11.1315 78.0952 11.129 78.088 11.1296 78.0879ZM11.1539 78.1646C11.1567 78.1795 11.1569 78.1873 11.1563 78.1875C11.1557 78.1877 11.1543 78.1802 11.1539 78.1646Z" stroke="#FFF" stroke-width="10.3387" fill="none"/>
  <path d="M123.216 219.513L148.054 221.27C149.229 225.23 149.777 228.112 149.697 229.914L113.559 226.382L111.459 219.31L139.339 195.027C140.371 196.431 141.484 199.144 142.679 203.167L123.216 219.513ZM185.325 210.205L205.18 195.178L179.95 192.101C178.998 188.895 178.595 186.04 178.74 183.534L214.921 188.592L217.021 195.664L188.665 218.344C187.614 216.878 186.501 214.165 185.325 210.205Z" fill="black"/>
  <path d="M156.454 244.772L163.681 170.138L171.421 168.433L164.195 243.067L156.454 244.772Z" fill="black"/>
  <path d="M388.675 273.2C368.692 273.2 351.642 269.167 337.525 261.1C323.592 252.85 312.958 241.3 305.625 226.45C298.475 211.6 294.9 194.275 294.9 174.475C294.9 154.308 298.567 136.708 305.9 121.675C313.417 106.642 324.142 95 338.075 86.75C352.008 78.3167 368.783 74.1 388.4 74.1C403.25 74.1 416.542 76.6667 428.275 81.8C440.008 86.75 449.45 94.175 456.6 104.075C463.933 113.792 468.517 125.8 470.35 140.1H432.4C430.017 131.117 425.158 124.058 417.825 118.925C410.675 113.608 401.142 110.95 389.225 110.95C376.025 110.95 365.483 113.975 357.6 120.025C349.9 125.892 344.308 133.592 340.825 143.125C337.342 152.475 335.6 162.375 335.6 172.825C335.6 183.642 337.433 193.908 341.1 203.625C344.767 213.342 350.542 221.225 358.425 227.275C366.492 233.325 377.033 236.35 390.05 236.35C397.75 236.35 404.625 235.25 410.675 233.05C416.725 230.667 421.675 227.275 425.525 222.875C429.558 218.475 432.308 213.25 433.775 207.2H473.1C471.45 221.317 466.683 233.325 458.8 243.225C450.917 253.125 440.925 260.642 428.825 265.775C416.725 270.725 403.342 273.2 388.675 273.2ZM488.188 271V76.3H526.688V142.85C530.905 137.9 535.58 134.05 540.713 131.3C546.03 128.55 551.347 126.625 556.663 125.525C562.163 124.242 567.205 123.6 571.788 123.6C585.355 123.6 595.988 126.625 603.688 132.675C611.388 138.725 616.888 146.883 620.188 157.15C623.488 167.417 625.138 178.692 625.138 190.975V271H586.638V196.475C586.638 192.075 586.18 187.675 585.263 183.275C584.53 178.875 583.155 174.842 581.138 171.175C579.122 167.325 576.28 164.3 572.613 162.1C568.947 159.717 564.088 158.525 558.038 158.525C552.355 158.525 547.497 159.717 543.463 162.1C539.43 164.483 536.13 167.692 533.563 171.725C531.18 175.575 529.438 179.883 528.338 184.65C527.238 189.417 526.688 194.183 526.688 198.95V271H488.188ZM692.367 272.925C685.767 272.925 679.351 272.1 673.117 270.45C667.067 268.617 661.659 265.867 656.892 262.2C652.126 258.533 648.367 253.95 645.617 248.45C642.867 242.95 641.492 236.533 641.492 229.2C641.492 219.3 643.509 211.417 647.542 205.55C651.576 199.5 656.984 194.917 663.767 191.8C670.551 188.683 678.342 186.575 687.142 185.475C696.126 184.375 705.384 183.825 714.917 183.825H735.817C735.817 178.508 734.809 173.833 732.792 169.8C730.959 165.583 728.117 162.375 724.267 160.175C720.417 157.792 715.467 156.6 709.417 156.6C705.567 156.6 701.809 157.15 698.142 158.25C694.659 159.167 691.726 160.542 689.342 162.375C686.959 164.208 685.401 166.592 684.667 169.525H645.617C646.717 161.458 649.284 154.583 653.317 148.9C657.351 143.033 662.392 138.267 668.442 134.6C674.492 130.933 681.092 128.275 688.242 126.625C695.576 124.792 703.092 123.875 710.792 123.875C731.876 123.875 747.459 129.925 757.542 142.025C767.626 153.942 772.667 170.9 772.667 192.9V271H738.017L737.467 252.3C732.884 258.717 727.659 263.392 721.792 266.325C716.109 269.258 710.609 271.092 705.292 271.825C699.976 272.558 695.667 272.925 692.367 272.925ZM701.167 242.4C707.584 242.4 713.451 241.117 718.767 238.55C724.084 235.983 728.301 232.5 731.417 228.1C734.534 223.7 736.092 218.75 736.092 213.25V209.675H709.692C705.842 209.675 702.084 209.858 698.417 210.225C694.934 210.592 691.726 211.325 688.792 212.425C686.042 213.342 683.842 214.9 682.192 217.1C680.542 219.3 679.717 222.233 679.717 225.9C679.717 229.567 680.634 232.683 682.467 235.25C684.484 237.633 687.142 239.467 690.442 240.75C693.742 241.85 697.317 242.4 701.167 242.4ZM794.491 271V126.075H832.991V271H794.491ZM813.741 111.5C806.591 111.5 800.816 109.392 796.416 105.175C792.016 100.775 789.816 95.1833 789.816 88.4C789.816 81.25 792.108 75.475 796.691 71.075C801.275 66.675 807.05 64.475 814.016 64.475C820.433 64.475 825.933 66.675 830.516 71.075C835.283 75.2917 837.666 80.975 837.666 88.125C837.666 95.0917 835.375 100.775 830.791 105.175C826.391 109.392 820.708 111.5 813.741 111.5ZM943.81 273.2C923.826 273.2 906.776 269.167 892.66 261.1C878.726 252.85 868.093 241.3 860.76 226.45C853.61 211.6 850.035 194.275 850.035 174.475C850.035 154.308 853.701 136.708 861.035 121.675C868.551 106.642 879.276 95 893.21 86.75C907.143 78.3167 923.918 74.1 943.535 74.1C958.385 74.1 971.676 76.6667 983.41 81.8C995.143 86.75 1004.58 94.175 1011.73 104.075C1019.07 113.792 1023.65 125.8 1025.48 140.1H987.535C985.151 131.117 980.293 124.058 972.96 118.925C965.81 113.608 956.276 110.95 944.36 110.95C931.16 110.95 920.618 113.975 912.735 120.025C905.035 125.892 899.443 133.592 895.96 143.125C892.476 152.475 890.735 162.375 890.735 172.825C890.735 183.642 892.568 193.908 896.235 203.625C899.901 213.342 905.676 221.225 913.56 227.275C921.626 233.325 932.168 236.35 945.185 236.35C952.885 236.35 959.76 235.25 965.81 233.05C971.86 230.667 976.81 227.275 980.66 222.875C984.693 218.475 987.443 213.25 988.91 207.2H1028.23C1026.58 221.317 1021.82 233.325 1013.93 243.225C1006.05 253.125 996.06 260.642 983.96 265.775C971.86 270.725 958.476 273.2 943.81 273.2ZM1110.97 272.925C1096.31 272.925 1083.47 269.992 1072.47 264.125C1061.47 258.075 1052.95 249.55 1046.9 238.55C1040.85 227.367 1037.82 214.167 1037.82 198.95C1037.82 183.367 1040.85 169.983 1046.9 158.8C1053.13 147.433 1061.75 138.725 1072.75 132.675C1083.75 126.625 1096.4 123.6 1110.7 123.6C1125.36 123.6 1138.11 126.717 1148.92 132.95C1159.74 139.183 1168.17 147.892 1174.22 159.075C1180.27 170.258 1183.3 183.642 1183.3 199.225C1183.3 214.442 1180.27 227.642 1174.22 238.825C1168.36 249.825 1160.01 258.258 1149.2 264.125C1138.56 269.992 1125.82 272.925 1110.97 272.925ZM1110.42 237.725C1118.86 237.725 1125.64 235.892 1130.77 232.225C1135.91 228.558 1139.57 223.792 1141.77 217.925C1144.16 211.875 1145.35 205.55 1145.35 198.95C1145.35 192.35 1144.16 186.025 1141.77 179.975C1139.57 173.925 1135.91 168.975 1130.77 165.125C1125.82 161.092 1119.04 159.075 1110.42 159.075C1102.17 159.075 1095.48 161.092 1090.35 165.125C1085.21 168.975 1081.46 173.925 1079.07 179.975C1076.87 186.025 1075.77 192.35 1075.77 198.95C1075.77 205.733 1076.87 212.058 1079.07 217.925C1081.46 223.792 1085.21 228.558 1090.35 232.225C1095.48 235.892 1102.17 237.725 1110.42 237.725ZM1259.37 272.925C1244.71 272.925 1232.51 269.625 1222.8 263.025C1213.26 256.242 1206.11 247.258 1201.35 236.075C1196.58 224.708 1194.2 212.15 1194.2 198.4C1194.2 183.917 1196.76 171.083 1201.9 159.9C1207.03 148.533 1214.64 139.642 1224.72 133.225C1234.81 126.808 1247.36 123.6 1262.4 123.6C1267.53 123.6 1272.57 124.242 1277.52 125.525C1282.66 126.625 1287.33 128.367 1291.55 130.75C1295.95 132.95 1299.71 135.883 1302.82 139.55V76.3H1341.32V271H1303.92L1303.37 254.775C1300.07 258.992 1296.04 262.475 1291.27 265.225C1286.69 267.792 1281.74 269.717 1276.42 271C1271.11 272.283 1265.42 272.925 1259.37 272.925ZM1267.07 238.275C1275.32 238.275 1282.01 236.35 1287.15 232.5C1292.46 228.65 1296.41 223.7 1298.97 217.65C1301.54 211.6 1302.82 205.092 1302.82 198.125C1302.82 190.975 1301.54 184.467 1298.97 178.6C1296.59 172.55 1292.74 167.783 1287.42 164.3C1282.29 160.633 1275.51 158.8 1267.07 158.8C1258.64 158.8 1251.86 160.725 1246.72 164.575C1241.59 168.425 1237.92 173.467 1235.72 179.7C1233.71 185.75 1232.7 192.258 1232.7 199.225C1232.7 204.358 1233.25 209.308 1234.35 214.075C1235.63 218.658 1237.65 222.783 1240.4 226.45C1243.15 230.117 1246.72 233.05 1251.12 235.25C1255.52 237.267 1260.84 238.275 1267.07 238.275ZM1429.6 272.925C1414.38 272.925 1401.46 269.9 1390.82 263.85C1380.19 257.8 1372.03 249.275 1366.35 238.275C1360.66 227.092 1357.82 214.075 1357.82 199.225C1357.82 184.192 1360.76 171.083 1366.62 159.9C1372.49 148.533 1380.74 139.642 1391.37 133.225C1402.19 126.808 1414.93 123.6 1429.6 123.6C1440.6 123.6 1450.22 125.433 1458.47 129.1C1466.91 132.767 1473.96 137.9 1479.65 144.5C1485.51 151.1 1489.82 158.8 1492.57 167.6C1495.51 176.217 1496.88 185.567 1496.7 195.65C1496.7 198.217 1496.61 200.692 1496.42 203.075C1496.24 205.458 1495.87 207.842 1495.32 210.225H1396.05C1396.6 215.725 1398.16 220.767 1400.72 225.35C1403.29 229.933 1406.86 233.6 1411.45 236.35C1416.21 238.917 1422.08 240.2 1429.05 240.2C1433.63 240.2 1437.85 239.742 1441.7 238.825C1445.55 237.725 1448.85 236.075 1451.6 233.875C1454.35 231.675 1456.27 229.108 1457.37 226.175H1495.32C1492.94 236.992 1488.45 245.883 1481.85 252.85C1475.43 259.817 1467.64 264.95 1458.47 268.25C1449.31 271.367 1439.68 272.925 1429.6 272.925ZM1396.87 183.275H1459.85C1459.66 178.325 1458.38 173.742 1456 169.525C1453.8 165.125 1450.41 161.642 1445.82 159.075C1441.42 156.325 1435.74 154.95 1428.77 154.95C1421.81 154.95 1415.94 156.325 1411.17 159.075C1406.59 161.825 1403.11 165.4 1400.72 169.8C1398.52 174.017 1397.24 178.508 1396.87 183.275Z"/>
  <circle cx="813.5" cy="88.5" r="24.5" fill="#FE9332"/>
</svg>
